<svg width="55" height="55" viewBox="0 0 55 55" fill="none" xmlns="http://www.w3.org/2000/svg">
<g clip-path="url(#clip0_58_761)">
<path d="M27.5 55C42.6878 55 55 42.6878 55 27.5C55 12.3122 42.6878 0 27.5 0C12.3122 0 0 12.3122 0 27.5C0 42.6878 12.3122 55 27.5 55Z" fill="#2B8A3E"/>
<path d="M28.1916 6.77808H27.3753C25.7962 6.77808 24.5161 8.05819 24.5161 9.6373V26.6089C24.5161 28.1881 25.7962 29.4682 27.3753 29.4682H28.1916C29.7707 29.4682 31.0508 28.1881 31.0508 26.6089V9.6373C31.0508 8.05819 29.7707 6.77808 28.1916 6.77808Z" fill="#FEFEFE"/>
<path fill-rule="evenodd" clip-rule="evenodd" d="M14.079 13.1312C8.01425 18.7589 6.02033 27.5295 9.05605 35.2258C12.0917 42.9223 19.5357 47.9704 27.8093 47.9428C36.0828 47.9152 43.493 42.8177 46.4774 35.1012C49.4615 27.3845 47.4091 18.6276 41.3071 13.0405C40.1506 12.3184 38.6577 12.4398 37.6329 13.339C36.6082 14.2383 36.2941 15.7029 36.8598 16.9432C41.2748 20.7856 42.8412 26.9646 40.7898 32.4462C38.7386 37.9278 33.5005 41.5605 27.6476 41.5605C21.7948 41.5605 16.5567 37.9278 14.5054 32.4462C12.4541 26.9646 14.0206 20.7856 18.4355 16.9432C19.2003 15.7232 18.9656 14.1285 17.8821 13.1803C16.7984 12.2322 15.1867 12.2114 14.079 13.1312Z" fill="#FEFEFE"/>
</g>
<defs>
<clipPath id="clip0_58_761">
<rect width="55" height="55" fill="white"/>
</clipPath>
</defs>
</svg>
