<svg width="55" height="55" viewBox="0 0 55 55" fill="none" xmlns="http://www.w3.org/2000/svg">
<g clip-path="url(#clip0_58_774)">
<path d="M27.5 55C42.6878 55 55 42.6878 55 27.5C55 12.3122 42.6878 0 27.5 0C12.3122 0 0 12.3122 0 27.5C0 42.6878 12.3122 55 27.5 55Z" fill="#2B8A3E"/>
<path fill-rule="evenodd" clip-rule="evenodd" d="M28.9077 30.8984C28.9959 30.9422 30.2147 32.1553 30.2948 32.2803C30.2017 32.3468 29.5457 32.6063 29.2303 32.7941C29.129 32.8545 29.0125 32.9352 28.9062 32.9773L28.9077 30.8984ZM26.0991 30.8991C26.106 31.5184 26.122 32.3272 26.0936 32.9194C25.7908 32.7964 25.2574 32.4073 24.7185 32.2708L26.0991 30.8991ZM22.7648 30.2385C22.7027 30.1562 22.5232 29.6893 22.4505 29.5431C22.3687 29.3784 22.1384 29.0259 22.1076 28.8946L24.1021 28.8985L22.7648 30.2385ZM32.4226 30.4035C32.3095 30.3456 30.9533 28.9854 30.9107 28.8944L33.1263 28.8932L32.7381 29.6129C32.6306 29.8257 32.4803 30.173 32.4226 30.4035ZM27.3232 25.5448C28.3206 25.3788 29.1054 26.0959 29.2387 26.9098C29.4011 27.9011 28.7063 28.6607 27.9023 28.8142C26.9048 29.0046 26.0906 28.2784 25.961 27.4501C25.8049 26.4521 26.4949 25.6827 27.3232 25.5448ZM30.9124 26.0808C31.0268 25.9634 32.3021 24.6499 32.4212 24.5931C32.5152 25.0918 33.0465 25.9078 33.1129 26.0904L30.9124 26.0808ZM22.1096 26.0915C22.1829 25.8972 22.3587 25.6548 22.4632 25.4402C22.5521 25.2575 22.6635 24.9252 22.7648 24.7588C22.8716 24.8095 24.0363 25.9763 24.0952 26.0903L22.1096 26.0915ZM24.5574 22.5402C24.8397 22.4302 25.1155 22.3476 25.3728 22.2181L26.0994 21.8283L26.1005 24.0832C25.9915 24.0265 24.6144 22.6475 24.5574 22.5402ZM28.9109 21.7763C29.1877 21.894 29.544 22.1468 30.061 22.3628L30.3967 22.4924C30.4781 22.5325 30.4323 22.5042 30.4786 22.547C30.2644 22.6688 29.0727 23.9957 28.9056 24.0823L28.9109 21.7763ZM20.0792 22.0465C20.5063 22.4761 20.6315 22.4498 20.5908 22.8905C20.4729 24.1647 19.8369 25.0248 19.0049 25.8369C18.8351 26.0027 18.7561 26.0892 18.5742 26.0919L16.845 26.0893C15.2982 26.1036 15.5917 26.3227 14.7391 25.4136L12.6563 23.3347C12.2489 22.9609 11.6719 22.2152 11.1839 22.0311C10.3282 21.708 9.58784 22.2212 9.35996 22.8235C8.99356 23.7924 9.67144 24.3243 10.0459 24.7108C10.4987 25.1781 10.9566 25.6255 11.4117 26.0811C10.9673 26.1356 8.83272 26.0911 8.21184 26.0909C7.67944 26.0908 7.25896 26.1493 6.9636 26.4375C6.31802 27.0678 6.32566 28.0188 7.0261 28.5942C7.37277 28.879 7.77344 28.8945 8.30434 28.8945C9.13881 28.8945 10.7266 28.8517 11.4688 28.8992C11.2344 29.2772 9.73537 30.5048 9.44127 31.0134C8.86348 32.0123 9.75417 33.4344 11.0712 33.0436C11.4711 32.9249 11.6717 32.6836 11.8781 32.4629C12.0987 32.2271 12.3364 32.0202 12.5743 31.7726C13.4161 30.8966 14.531 29.8698 15.3449 28.9921C15.4339 28.8962 15.4395 28.8922 15.6095 28.8922L18.0167 28.8945C18.6368 28.8945 18.6095 28.7906 19.0677 29.2255C19.8133 29.9333 20.3687 30.735 20.5584 31.8674C20.6745 32.56 20.5328 32.4423 20.203 32.802C20.0686 32.9485 19.9674 33.0392 19.8485 33.1569L18.1218 34.8834C17.9836 35.0205 17.9408 35.1369 17.6797 35.1349L12.8676 35.1332C12.4195 35.1333 12.0384 35.2035 11.7588 35.4261C10.8278 36.1666 11.1764 37.6644 12.3251 37.9093C12.6896 37.9869 14.5426 37.9445 15.0418 37.9398C14.9839 38.0434 14.8728 38.1206 14.7879 38.2087L14.0632 38.9333C13.7256 39.2626 13.4314 39.5685 13.1105 39.8923C12.8009 40.2047 12.4245 40.4922 12.2842 40.9787C12.1167 41.5603 12.3889 42.1736 12.6948 42.4121C13.0547 42.6925 13.5733 42.8939 14.154 42.6639C14.552 42.5062 14.9519 42.0448 15.1972 41.7937L16.6306 40.36C16.7488 40.244 17.0011 39.955 17.1282 39.8807C17.1287 40.4491 17.0822 42.2208 17.1409 42.6513C17.3687 44.3216 19.936 44.272 19.9345 42.3318C19.9339 41.4171 19.934 40.5023 19.934 39.5876C19.934 38.7868 19.9079 37.9805 19.9323 37.1801C19.9367 37.0313 19.9545 37.0244 20.0346 36.9507C20.5805 36.4479 21.554 35.4486 22.1035 34.887C22.4451 34.538 22.4298 34.4074 22.9827 34.4659C24.075 34.5816 25.0178 35.1564 25.7146 35.8671C26.1073 36.2677 26.1033 36.2422 26.1033 36.8434C26.1033 37.306 26.1033 37.7684 26.1033 38.231C26.1031 38.4574 26.099 38.6832 26.1026 38.9092C26.1056 39.0999 26.1449 39.4214 26.0522 39.545C25.93 39.708 24.8284 40.7685 24.6746 40.9116C24.0419 41.5007 23.2533 42.383 22.6094 42.9783C22.4974 43.0818 22.3871 43.2044 22.2744 43.3208C21.6046 44.012 21.9845 45.2383 22.8593 45.5383C23.8258 45.8697 24.3229 45.2261 24.714 44.8361C25.0025 44.5485 25.8342 43.6508 26.0977 43.4703C26.1502 44.5032 26.1033 45.6632 26.1033 46.71C26.1033 47.2839 26.0942 47.6331 26.4313 48.0073C26.6651 48.2668 27.0063 48.5237 27.5451 48.5081C28.0713 48.4928 28.4296 48.2148 28.6252 47.9453C28.9424 47.5084 28.9059 47.2191 28.9059 46.6175C28.906 45.5956 28.853 44.4234 28.9108 43.4208C29.1564 43.5923 30.005 44.5001 30.2795 44.7769C30.7889 45.2908 31.2604 45.8213 32.1047 45.5694C32.7401 45.3798 33.2883 44.7015 33.0637 43.8441C32.9666 43.4729 32.7157 43.2399 32.5077 43.041L31.1319 41.6726C30.4802 40.97 29.7539 40.3446 29.1001 39.6339C28.8729 39.3869 28.9043 39.5489 28.906 39.1253L28.9055 37.0902C28.9 36.3071 28.8347 36.5008 29.2197 36.0524C29.4343 35.8024 29.6524 35.6012 29.92 35.3972C30.4099 35.0237 31.0142 34.6743 31.7835 34.5173C31.9223 34.489 32.32 34.4262 32.4459 34.4559C32.572 34.4857 32.7233 34.689 32.8144 34.7804L34.8637 36.8308C35.2779 37.2476 35.2699 37.1168 35.27 37.7684L35.2709 41.8693C35.2685 42.3269 35.2668 42.6778 35.4873 43.0208C35.641 43.2603 35.9179 43.5068 36.2557 43.6113C37.1055 43.8741 37.8073 43.3107 38.0072 42.7115C38.1227 42.3651 38.0915 40.5589 38.0741 40.0699C38.1823 40.1231 38.2626 40.2277 38.3483 40.3141L39.0729 41.0389C39.3988 41.3662 39.7037 41.6662 40.029 41.9948C40.3121 42.2808 40.5762 42.6673 41.1786 42.7494C41.4702 42.7891 41.7579 42.7304 41.9867 42.6238C42.7058 42.2886 42.9794 41.3917 42.6046 40.683C42.4411 40.3739 40.6086 38.619 40.2504 38.259C40.1608 38.1688 40.0909 38.1015 40.003 38.013C39.9176 37.9269 39.8317 37.8602 39.7784 37.7576C40.6952 37.7744 41.6422 37.767 42.5608 37.7591C44.4137 37.7431 44.4464 35.0726 42.6843 34.9585C41.8353 34.9035 40.8072 34.9539 39.9388 34.9539C39.0144 34.9539 38.0863 34.9458 37.1624 34.955C36.8505 34.9581 36.8763 34.8833 36.7035 34.7138C36.5814 34.5939 36.4841 34.4959 36.3641 34.3747C36.1595 34.168 34.702 32.7583 34.6482 32.6354C34.5833 32.4872 34.6251 32.1444 34.6471 31.9771C34.7473 31.2175 35.0855 30.5395 35.449 30.0414C35.7177 29.6733 35.9852 29.4154 36.2861 29.1209C36.5616 28.8515 36.6544 28.8934 37.0714 28.8931C37.9861 28.8925 38.9005 28.8951 39.8155 28.8945C40.1822 28.8942 40.1779 28.8361 40.3763 29.0359L42.781 31.442C43.1424 31.7998 43.8013 32.5539 44.2158 32.7822C45.3946 33.4317 46.5906 32.1899 46.187 31.0595C45.9601 30.424 44.3544 29.234 44.226 28.8949C45.1723 28.907 46.2138 28.9254 47.1549 28.8937C48.5298 28.8474 48.9432 27.2154 48.0021 26.4051C47.6755 26.1239 47.3815 26.0902 46.8762 26.0908C45.9054 26.0919 44.9344 26.0914 43.9636 26.0898L44.1453 25.8801C44.2251 25.7997 44.2528 25.7623 44.3284 25.693C44.5962 25.4471 45.9265 24.1616 46.0876 23.8747C46.6809 22.8177 45.7073 21.3876 44.3603 21.8712C44.0141 21.9955 43.7436 22.3124 43.5501 22.5099C42.9797 23.0928 40.0921 26.0283 39.9601 26.0756C39.8297 26.1222 37.4536 26.0908 37.1022 26.0909C36.4387 26.0909 36.4932 26.1072 36.0715 25.6955C35.2735 24.9164 34.526 23.6686 34.6217 22.4727C34.6344 22.3123 34.6746 22.307 34.7583 22.2281C35.6144 21.4218 36.4207 20.5593 37.2562 19.7311C37.7364 19.2552 37.5605 19.326 38.2738 19.326L42.5596 19.326C43.0531 19.3261 43.4065 19.3552 43.78 19.1012C44.8268 18.3895 44.5343 16.8085 43.3079 16.5512C42.9832 16.4831 40.9274 16.5079 40.4825 16.5238C40.6172 16.3078 41.8913 15.1071 42.1134 14.8757C42.3532 14.6258 42.659 14.3858 42.7524 13.8808C42.9321 12.9099 42.1305 12.1035 41.1722 12.2338C40.6947 12.2989 40.3802 12.5991 40.1492 12.85C39.7517 13.2818 39.3266 13.6467 38.9303 14.0669C38.7899 14.2157 38.6657 14.3705 38.5061 14.4773C38.5161 13.9286 38.5702 12.0881 38.4677 11.6758C38.1616 10.4454 36.5961 10.2645 35.9242 11.2484C35.6781 11.6087 35.701 11.9689 35.701 12.4547V16.7096C35.701 16.9005 35.7504 17.2354 35.6485 17.3532L33.8765 19.1269C33.652 19.3359 33.3791 19.6143 33.1646 19.8329C32.8023 20.2022 32.7936 20.3417 32.1985 20.2956C30.9264 20.197 29.796 19.4243 29.0438 18.5091C28.9834 18.4356 28.92 18.3937 28.9066 18.2811C28.8717 17.9881 28.904 15.5611 28.9066 15.1063C28.909 14.7002 28.8761 14.8054 29.0911 14.5878L30.1575 13.5263C30.6337 13.0523 31.0785 12.5886 31.5598 12.1233C31.8813 11.8123 32.7494 11.0133 32.9293 10.6559C33.1048 10.307 33.1248 9.82776 32.9655 9.47067C32.6431 8.74679 31.807 8.42569 31.0842 8.74947C30.5296 8.99787 29.2372 10.6551 28.9048 10.7847C28.9341 9.85562 28.913 8.85681 28.9064 7.92179C28.8931 6.01763 26.1045 5.99908 26.103 7.95194C26.1022 8.90102 26.1029 9.85026 26.1026 10.7993C25.7748 10.6512 24.4348 8.98918 23.9113 8.74726C23.5603 8.58505 23.1242 8.57843 22.7488 8.73684C22.0412 9.03521 21.6252 10.0046 22.1541 10.8146C22.2879 11.0197 22.4767 11.1689 22.6455 11.34L25.4354 14.1313C25.5684 14.2648 26.0756 14.6983 26.1002 14.8594C26.1467 15.1631 26.1037 17.1808 26.1034 17.6655C26.103 18.274 26.1972 18.3332 25.9692 18.5885L25.4475 19.1148C24.8254 19.6971 24.0805 20.1146 23.1108 20.2639C22.169 20.4088 22.3299 20.1352 21.7098 19.6145L20.2662 18.2515C19.7895 17.7364 19.7525 17.967 19.7537 17.388L19.7538 12.5164C19.7467 10.4829 17.1878 10.5001 16.9599 12.1664C16.8935 12.6524 16.9552 14.2972 16.9446 14.928C16.7672 14.8404 15.2702 13.2797 15.0908 13.0993C14.861 12.8683 14.492 12.4236 14.079 12.2908C13.0166 11.9491 11.9859 12.8917 12.2824 13.9961C12.4076 14.4626 12.8229 14.7882 13.0658 15.0321C13.3347 15.3023 14.775 16.6722 14.874 16.8664C14.3801 16.8484 12.5158 16.8085 12.1345 16.8955C10.9539 17.165 10.6357 18.682 11.6171 19.4104C11.9515 19.6587 12.2561 19.672 12.7443 19.6704L16.9068 19.6704C17.6493 19.6704 17.5724 19.5348 17.9993 19.9652C18.4674 20.4368 18.9152 20.883 19.3861 21.352C19.6243 21.5894 19.8428 21.8088 20.0792 22.0465Z" fill="#FEFEFE"/>
</g>
<defs>
<clipPath id="clip0_58_774">
<rect width="55" height="55" fill="white"/>
</clipPath>
</defs>
</svg>
