<svg width="36" height="36" viewBox="0 0 36 36" fill="none" xmlns="http://www.w3.org/2000/svg">
  <g clip-path="url(#clip0_81_837)">
    <path d="M32.12 10H3.88C3.38139 10 2.90321 10.1981 2.55064 10.5506C2.19807 10.9032 2 11.3814 2 11.88V30.12C2 30.6186 2.19807 31.0968 2.55064 31.4494C2.90321 31.8019 3.38139 32 3.88 32H32.12C32.6186 32 33.0968 31.8019 33.4494 31.4494C33.8019 31.0968 34 30.6186 34 30.12V11.88C34 11.3814 33.8019 10.9032 33.4494 10.5506C33.0968 10.1981 32.6186 10 32.12 10V10ZM32 30H4V12H32V30Z" fill="black"/>
    <path d="M8.56006 19.4502C9.1534 19.4502 9.73342 19.2742 10.2268 18.9446C10.7201 18.615 11.1046 18.1464 11.3317 17.5982C11.5588 17.0501 11.6182 16.4469 11.5024 15.8649C11.3867 15.283 11.1009 14.7484 10.6814 14.3289C10.2618 13.9093 9.72727 13.6236 9.14533 13.5078C8.56339 13.3921 7.96019 13.4515 7.41201 13.6786C6.86383 13.9056 6.39529 14.2901 6.06565 14.7835C5.73601 15.2768 5.56006 15.8569 5.56006 16.4502C5.56006 17.2458 5.87613 18.0089 6.43874 18.5715C7.00135 19.1341 7.76441 19.4502 8.56006 19.4502V19.4502ZM8.56006 14.8502C8.87809 14.8422 9.19128 14.9293 9.4596 15.1002C9.72793 15.2711 9.93922 15.5181 10.0665 15.8097C10.1937 16.1013 10.2312 16.4241 10.174 16.7371C10.1169 17.0501 9.96775 17.3389 9.74566 17.5667C9.52357 17.7944 9.23862 17.9508 8.92721 18.0159C8.6158 18.0809 8.29206 18.0517 7.99736 17.9318C7.70266 17.812 7.45038 17.607 7.27274 17.3431C7.09509 17.0792 7.00016 16.7683 7.00006 16.4502C6.99993 16.0327 7.163 15.6317 7.45446 15.3327C7.74592 15.0338 8.14268 14.8606 8.56006 14.8502V14.8502Z" fill="black"/>
    <path d="M7.89992 27.9999L13.8999 21.9999L17.0799 25.1799L14.2599 27.9999H16.2599L23.7199 20.5399L29.9999 26.7699V24.7699L24.1999 18.9999C24.0669 18.868 23.8872 18.7939 23.6999 18.7939C23.5126 18.7939 23.3329 18.868 23.1999 18.9999L18.0399 24.1599L14.3699 20.4999C14.2369 20.368 14.0572 20.2939 13.8699 20.2939C13.6826 20.2939 13.5029 20.368 13.3699 20.4999L5.91992 27.9999H7.89992Z" fill="black"/>
    <path d="M30.1399 3C30.1399 2.73478 30.0345 2.48043 29.847 2.29289C29.6595 2.10536 29.4051 2 29.1399 2H7.13989C6.87468 2 6.62032 2.10536 6.43279 2.29289C6.24525 2.48043 6.13989 2.73478 6.13989 3V4H30.1399V3Z" fill="black"/>
    <path d="M32.1201 7C32.1201 6.73478 32.0148 6.48043 31.8272 6.29289C31.6397 6.10536 31.3853 6 31.1201 6H5.12012C4.8549 6 4.60055 6.10536 4.41301 6.29289C4.22547 6.48043 4.12012 6.73478 4.12012 7V8H32.1201V7Z" fill="black"/>
  </g>
  <defs>
    <clipPath id="clip0_81_837">
      <rect width="36" height="36" fill="white"/>
    </clipPath>
  </defs>
</svg>


