<svg width="54" height="55" viewBox="0 0 54 55" fill="none" xmlns="http://www.w3.org/2000/svg">
<g clip-path="url(#clip0_58_749)">
<path d="M27 55C41.9117 55 54 42.6878 54 27.5C54 12.3122 41.9117 0 27 0C12.0883 0 0 12.3122 0 27.5C0 42.6878 12.0883 55 27 55Z" fill="#2B8A3E"/>
<path fill-rule="evenodd" clip-rule="evenodd" d="M26.9999 8.71533C37.1858 8.71533 45.4432 17.1256 45.4432 27.5001C45.4432 37.8746 37.1858 46.285 26.9999 46.285C16.814 46.285 8.55664 37.8746 8.55664 27.5001C8.55664 17.1256 16.814 8.71533 26.9999 8.71533ZM16.5534 16.8602H37.4466V38.1402H16.5534V16.8602Z" fill="#FEFEFE"/>
</g>
<defs>
<clipPath id="clip0_58_749">
<rect width="54" height="55" fill="white"/>
</clipPath>
</defs>
</svg>
