<svg width="150" height="150" viewBox="0 0 150 150" fill="none" xmlns="http://www.w3.org/2000/svg">
<path d="M91.7858 71.9531L39.8999 62.8125V130.355C39.9005 131.088 40.0457 131.815 40.327 132.493C40.6084 133.17 41.0205 133.786 41.5398 134.304C42.059 134.823 42.6753 135.234 43.3535 135.514C44.0316 135.794 44.7583 135.938 45.4921 135.937H135.023C135.758 135.939 136.486 135.796 137.165 135.517C137.844 135.237 138.461 134.826 138.982 134.308C139.502 133.789 139.915 133.173 140.197 132.495C140.479 131.816 140.624 131.089 140.625 130.355V105.469L91.7858 71.9531Z" fill="#185C37"/>
<path d="M91.7858 14.0625H45.4921C44.7583 14.0619 44.0316 14.2058 43.3535 14.486C42.6753 14.7663 42.059 15.1773 41.5398 15.6957C41.0205 16.2141 40.6084 16.8298 40.327 17.5074C40.0457 18.1851 39.9005 18.9116 39.8999 19.6453V44.5313L91.7858 75L119.259 84.1406L140.625 75V44.5313L91.7858 14.0625Z" fill="#21A366"/>
<path d="M39.8999 44.5312H91.7858V75H39.8999V44.5312Z" fill="#107C41"/>
<path opacity="0.1" d="M77.0343 38.4375H39.8999V114.609H77.0343C78.514 114.602 79.9312 114.012 80.9788 112.967C82.0264 111.922 82.6201 110.506 82.6312 109.027V44.0203C82.6201 42.5407 82.0264 41.1249 80.9788 40.08C79.9312 39.035 78.514 38.4449 77.0343 38.4375Z" fill="black"/>
<path opacity="0.2" d="M73.9827 41.4844H39.8999V117.656H73.9827C75.4624 117.649 76.8796 117.059 77.9272 116.014C78.9748 114.969 79.5685 113.553 79.5796 112.073V47.0672C79.5685 45.5875 78.9748 44.1718 77.9272 43.1268C76.8796 42.0818 75.4624 41.4917 73.9827 41.4844Z" fill="black"/>
<path opacity="0.2" d="M73.9827 41.4844H39.8999V111.562H73.9827C75.4624 111.555 76.8796 110.965 77.9272 109.92C78.9748 108.875 79.5685 107.459 79.5796 105.98V47.0672C79.5685 45.5875 78.9748 44.1718 77.9272 43.1268C76.8796 42.0818 75.4624 41.4917 73.9827 41.4844Z" fill="black"/>
<path opacity="0.2" d="M70.9312 41.4844H39.8999V111.562H70.9312C72.4108 111.555 73.828 110.965 74.8757 109.92C75.9233 108.875 76.5169 107.459 76.528 105.98V47.0672C76.5169 45.5875 75.9233 44.1718 74.8757 43.1268C73.828 42.0818 72.4108 41.4917 70.9312 41.4844Z" fill="black"/>
<path d="M14.9719 41.4844H70.9312C72.4136 41.4831 73.8358 42.0705 74.8852 43.1173C75.9347 44.1642 76.5256 45.5849 76.5281 47.0672V102.933C76.5256 104.415 75.9347 105.836 74.8852 106.883C73.8358 107.93 72.4136 108.517 70.9312 108.516H14.9719C14.2377 108.517 13.5105 108.373 12.8318 108.093C12.1532 107.813 11.5363 107.403 11.0165 106.884C10.4967 106.366 10.0842 105.75 9.80256 105.072C9.5209 104.394 9.37561 103.667 9.375 102.933V47.0672C9.37561 46.333 9.5209 45.6062 9.80256 44.9282C10.0842 44.2502 10.4967 43.6344 11.0165 43.1159C11.5363 42.5975 12.1532 42.1865 12.8318 41.9066C13.5105 41.6266 14.2377 41.4832 14.9719 41.4844Z" fill="url(#paint0_linear_29_33)"/>
<path d="M26.7188 93.1546L38.4891 74.9483L27.7078 56.8452H36.3656L42.2484 68.4374C42.7922 69.5343 43.1859 70.3499 43.3641 70.8937H43.4438C43.8281 70.0124 44.2359 69.164 44.6625 68.3343L50.9531 56.864H58.9219L47.8641 74.864L59.2031 93.1686H50.7234L43.9266 80.4608C43.611 79.9145 43.3428 79.3421 43.125 78.7499H43.0125C42.8143 79.3269 42.5501 79.879 42.225 80.3952L35.2266 93.1546H26.7188Z" fill="white"/>
<path d="M135.028 14.0625H91.7861V44.5313H140.625V19.6453C140.625 18.9112 140.479 18.1843 140.198 17.5063C139.916 16.8284 139.503 16.2125 138.984 15.6941C138.464 15.1756 137.847 14.7646 137.168 14.4847C136.49 14.2047 135.762 14.0613 135.028 14.0625Z" fill="#33C481"/>
<path d="M91.7861 75H140.625V105.469H91.7861V75Z" fill="#107C41"/>
<defs>
<linearGradient id="paint0_linear_29_33" x1="21.0656" y1="37.0969" x2="64.8375" y2="112.903" gradientUnits="userSpaceOnUse">
<stop stop-color="#18884F"/>
<stop offset="0.5" stop-color="#117E43"/>
<stop offset="1" stop-color="#0B6631"/>
</linearGradient>
</defs>
</svg>
