<svg width="55" height="55" viewBox="0 0 55 55" fill="none" xmlns="http://www.w3.org/2000/svg">
<g clip-path="url(#clip0_58_766)">
<path d="M27.5 55C42.6878 55 55 42.6878 55 27.5C55 12.3122 42.6878 0 27.5 0C12.3122 0 0 12.3122 0 27.5C0 42.6878 12.3122 55 27.5 55Z" fill="#2B8A3E"/>
<path d="M27.5001 36.4856C32.4626 36.4856 36.4856 32.4627 36.4856 27.5001C36.4856 22.5376 32.4626 18.5146 27.5001 18.5146C22.5376 18.5146 18.5146 22.5376 18.5146 27.5001C18.5146 32.4627 22.5376 36.4856 27.5001 36.4856Z" fill="#FEFEFE"/>
<path fill-rule="evenodd" clip-rule="evenodd" d="M35.7596 13.4324C32.9763 16.3367 31.5846 17.7887 31.5846 17.7887C28.279 16.3859 24.7698 16.8699 21.0566 19.2409C18.2441 16.5358 17.8205 13.7828 19.7861 10.9819C23.5466 6.65267 34.0892 4.95098 36.0715 10.2665C36.4618 11.3134 36.3467 12.4818 35.7596 13.4324Z" fill="#FEFEFE"/>
<path fill-rule="evenodd" clip-rule="evenodd" d="M41.5493 35.8684C38.645 33.0851 37.1929 31.6935 37.1929 31.6935C38.5958 28.3879 38.1118 24.8786 35.7407 21.1655C38.4459 18.353 41.1989 17.9294 43.9998 19.8949C48.329 23.6554 50.0307 34.1981 44.7152 36.1804C43.6683 36.5707 42.4998 36.4556 41.5493 35.8684Z" fill="#FEFEFE"/>
<path fill-rule="evenodd" clip-rule="evenodd" d="M19.1127 41.6582C21.896 38.7539 23.2876 37.3019 23.2876 37.3019C26.5932 38.7047 30.1025 38.2206 33.8157 35.8496C36.6282 38.5548 37.0518 41.3078 35.0862 44.1087C31.3257 48.4379 20.7831 50.1396 18.8008 44.8241C18.4105 43.7772 18.5256 42.6088 19.1127 41.6582Z" fill="#FEFEFE"/>
<path fill-rule="evenodd" clip-rule="evenodd" d="M13.323 19.2218C16.2273 22.0052 17.6794 23.3968 17.6794 23.3968C16.2765 26.7024 16.7605 30.2117 19.1316 33.9248C16.4264 36.7373 13.6734 37.1609 10.8724 35.1953C6.54326 31.4348 4.84165 20.8922 10.1571 18.9099C11.204 18.5196 12.3725 18.6347 13.323 19.2218Z" fill="#FEFEFE"/>
</g>
<defs>
<clipPath id="clip0_58_766">
<rect width="55" height="55" fill="white"/>
</clipPath>
</defs>
</svg>
