<svg width="54" height="55" viewBox="0 0 54 55" fill="none" xmlns="http://www.w3.org/2000/svg">
<g clip-path="url(#clip0_58_737)">
<path d="M27 55C41.9117 55 54 42.6878 54 27.5C54 12.3122 41.9117 0 27 0C12.0883 0 0 12.3122 0 27.5C0 42.6878 12.0883 55 27 55Z" fill="#2B8A3E"/>
<path d="M27.0455 33.762C30.4657 33.762 33.2384 30.9379 33.2384 27.4543C33.2384 23.9707 30.4657 21.1467 27.0455 21.1467C23.6252 21.1467 20.8525 23.9707 20.8525 27.4543C20.8525 30.9379 23.6252 33.762 27.0455 33.762Z" fill="#FEFEFE"/>
<path d="M29.0506 11.1183C29.0506 9.53916 28.0532 8.25903 26.8229 8.25903C25.5926 8.25903 24.5952 9.53916 24.5952 11.1183V15.8369C24.5952 17.416 25.5926 18.6961 26.8229 18.6961C28.0532 18.6961 29.0506 17.416 29.0506 15.8369V11.1183Z" fill="#FEFEFE"/>
<path d="M39.6605 17.4742C40.7568 16.3576 40.9403 14.7341 40.0703 13.848C39.2004 12.962 37.6064 13.1488 36.5101 14.2654L33.2342 17.602C32.1379 18.7186 31.9544 20.3421 32.8244 21.2282C33.6943 22.1143 35.2883 21.9274 36.3846 20.8108L39.6605 17.4742Z" fill="#FEFEFE"/>
<path d="M42.7504 29.6099C44.3008 29.6099 45.5576 28.5941 45.5576 27.341C45.5576 26.0879 44.3008 25.072 42.7504 25.072L38.1175 25.072C36.5671 25.072 35.3103 26.0879 35.3103 27.341C35.3103 28.5941 36.5671 29.6099 38.1175 29.6099L42.7504 29.6099Z" fill="#FEFEFE"/>
<path d="M36.51 40.4165C37.6063 41.5331 39.2003 41.72 40.0703 40.8339C40.9403 39.9478 40.7568 38.3243 39.6605 37.2077L36.3846 33.8711C35.2883 32.7545 33.6943 32.5676 32.8243 33.4537C31.9543 34.3398 32.1378 35.9633 33.2341 37.0799L36.51 40.4165Z" fill="#FEFEFE"/>
<path d="M29.0506 38.8451C29.0506 37.266 28.0532 35.9858 26.8229 35.9858C25.5926 35.9858 24.5952 37.266 24.5952 38.8451V43.5637C24.5952 45.1428 25.5926 46.4229 26.8229 46.4229C28.0532 46.4229 29.0506 45.1428 29.0506 43.5637V38.8451Z" fill="#FEFEFE"/>
<path d="M20.4115 37.08C21.5078 35.9633 21.6913 34.3398 20.8213 33.4538C19.9513 32.5677 18.3574 32.7546 17.2611 33.8712L13.9851 37.2077C12.8888 38.3243 12.7054 39.9478 13.5753 40.8339C14.4453 41.72 16.0393 41.5331 17.1356 40.4165L20.4115 37.08Z" fill="#FEFEFE"/>
<path d="M15.5282 29.6099C17.0786 29.6099 18.3354 28.5941 18.3354 27.341C18.3354 26.0879 17.0786 25.072 15.5282 25.072L10.8954 25.072C9.34495 25.072 8.08809 26.0879 8.08809 27.341C8.08809 28.5941 9.34495 29.6099 10.8954 29.6099L15.5282 29.6099Z" fill="#FEFEFE"/>
<path d="M17.2605 20.811C18.3568 21.9276 19.9508 22.1145 20.8208 21.2284C21.6907 20.3423 21.5073 18.7188 20.411 17.6022L17.1351 14.2657C16.0387 13.149 14.4448 12.9622 13.5748 13.8483C12.7048 14.7343 12.8883 16.3578 13.9846 17.4744L17.2605 20.811Z" fill="#FEFEFE"/>
</g>
<defs>
<clipPath id="clip0_58_737">
<rect width="54" height="55" fill="white"/>
</clipPath>
</defs>
</svg>
