<svg width="54" height="55" viewBox="0 0 54 55" fill="none" xmlns="http://www.w3.org/2000/svg">
<g clip-path="url(#clip0_58_733)">
<path d="M27.1479 55.0752C42.0596 55.0752 54.1479 42.763 54.1479 27.5752C54.1479 12.3874 42.0596 0.0751953 27.1479 0.0751953C12.2363 0.0751953 0.147949 12.3874 0.147949 27.5752C0.147949 42.763 12.2363 55.0752 27.1479 55.0752Z" fill="#2B8A3E"/>
<path fill-rule="evenodd" clip-rule="evenodd" d="M16.4038 13.8672H35.713C34.9787 10.746 35.0611 9.93946 38.7474 7.10864C37.2404 9.58379 39.7618 10.7078 41.651 12.7383C46.5415 17.7604 44.3395 20.8722 41.9422 22.8907V40.7964C41.9422 42.9649 40.2003 44.7391 38.0712 44.7391H16.4038C14.2746 44.7391 12.5327 42.9649 12.5327 40.7964V17.8099C12.5327 15.6413 14.2746 13.8672 16.4038 13.8672ZM14.9083 34.977H39.5667V30.2422H14.9083V34.977ZM39.5667 37.0842H14.9083V39.6168C14.9083 41.0625 16.0697 42.2453 17.4891 42.2453H36.9859C38.4053 42.2453 39.5667 41.0625 39.5667 39.6168V37.0842ZM14.9083 28.135H39.5667V24.1074C38.6949 24.305 37.8678 24.2241 37.2703 23.8174H14.9083V28.135V28.135ZM14.9083 21.7103H36.3479C36.3495 21.5769 36.3572 21.4381 36.3717 21.2931C36.6501 20.0393 35.8036 19.0937 33.8322 18.4562C35.2155 18.0924 36.8539 18.2594 38.7474 18.9568C37.924 18.0811 37.259 17.216 36.7517 16.3609H17.4891C16.0697 16.3609 14.9083 17.5437 14.9083 18.9894V21.7103V21.7103Z" fill="#FEFEFE"/>
</g>
<defs>
<clipPath id="clip0_58_733">
<rect width="54" height="55" fill="white"/>
</clipPath>
</defs>
</svg>
