<svg width="54" height="55" viewBox="0 0 54 55" fill="none" xmlns="http://www.w3.org/2000/svg">
<g clip-path="url(#clip0_58_753)">
<path d="M27 55C41.9117 55 54 42.6878 54 27.5C54 12.3122 41.9117 0 27 0C12.0883 0 0 12.3122 0 27.5C0 42.6878 12.0883 55 27 55Z" fill="#2B8A3E"/>
<path fill-rule="evenodd" clip-rule="evenodd" d="M8.01855 15.3652H9.21249V16.7773H11.9472C14.4752 16.8717 16.4975 18.9484 16.5689 21.524V33.3709C16.7247 34.5115 17.6824 35.3607 18.8131 35.3607C19.9438 35.3607 20.9014 34.5115 21.0572 33.3709V21.6358C21.0653 21.5895 21.0737 21.5435 21.0828 21.4975H21.0829C21.6502 18.6064 24.0339 16.5153 26.9422 16.5153L26.9999 16.5159L27.0576 16.5153C29.9656 16.5153 32.3495 18.6063 32.9167 21.4975H32.9169C32.9259 21.5434 32.9343 21.5895 32.9424 21.6358V33.3709C33.0983 34.5115 34.0559 35.3607 35.1866 35.3607C36.3173 35.3607 37.275 34.5115 37.4307 33.3709V21.524C37.5022 18.9484 39.5244 16.8717 42.0525 16.7773H44.7871V15.3652H45.9811V23.0932H44.7871V21.1318H42.0525C41.8498 21.1818 41.6921 21.2599 41.58 21.366C41.3967 21.5395 41.3901 21.7121 41.3978 22.1125V33.2925C41.2655 36.6293 38.571 39.2651 35.2921 39.2651C32.0132 39.2651 29.3188 36.6293 29.1864 33.2925V22.5383C28.8625 21.5893 27.9857 20.9522 26.9999 20.9481C26.014 20.9522 25.1372 21.5893 24.8132 22.5383V33.2925C24.6809 36.6293 21.9864 39.2651 18.7075 39.2651C15.4287 39.2651 12.7343 36.6293 12.6019 33.2925V22.1125C12.6096 21.7121 12.603 21.5395 12.4196 21.366C12.3076 21.2599 12.1498 21.1818 11.9472 21.1318H9.21249V23.0932H8.01855V15.3652Z" fill="#FEFEFE"/>
</g>
<defs>
<clipPath id="clip0_58_753">
<rect width="54" height="55" fill="white"/>
</clipPath>
</defs>
</svg>
