<svg width="80" height="80" viewBox="0 0 80 80" fill="none" xmlns="http://www.w3.org/2000/svg">
<path d="M60.25 5.17993L74.16 19.6799V74.8199H22.1975V74.9999H74.3375V19.8624L60.25 5.17993Z" fill="#909090"/>
<path d="M60.0775 5H22.02V74.82H74.16V19.6825L60.075 5" fill="#F4F4F4"/>
<path d="M21.6375 8.75H5.66251V25.8175H55.9125V8.75H21.6375Z" fill="#7A7B7C"/>
<path d="M56.18 25.5275H5.98749V8.44751H56.18V25.5275Z" fill="#DD2025"/>
<path d="M22.63 11.335H19.3625V23.335H21.9325V19.2875L22.5 19.32C23.0514 19.3105 23.5977 19.2117 24.1175 19.0275C24.5732 18.8707 24.9925 18.6232 25.35 18.3C25.7137 17.992 26.0005 17.6034 26.1875 17.165C26.4382 16.4362 26.5278 15.6617 26.45 14.895C26.4344 14.3472 26.3383 13.8048 26.165 13.285C26.0072 12.9097 25.773 12.5715 25.4773 12.2917C25.1816 12.0119 24.8309 11.7968 24.4475 11.66C24.116 11.54 23.7735 11.4529 23.425 11.4C23.1611 11.3593 22.8945 11.3375 22.6275 11.335M22.155 17.07H21.9325V13.37H22.415C22.6279 13.3546 22.8416 13.3873 23.0402 13.4656C23.2389 13.544 23.4173 13.6659 23.5625 13.8225C23.8633 14.225 24.024 14.715 24.02 15.2175C24.02 15.8325 24.02 16.39 23.465 16.7825C23.0652 17.0024 22.61 17.1014 22.155 17.0675M31.3325 11.3025C31.055 11.3025 30.785 11.3225 30.595 11.33L30 11.345H28.05V23.345H30.345C31.222 23.369 32.0953 23.2204 32.915 22.9075C33.5748 22.6458 34.159 22.2239 34.615 21.68C35.0584 21.1311 35.3766 20.4921 35.5475 19.8075C35.7439 19.0321 35.8397 18.2348 35.8325 17.435C35.881 16.4904 35.8079 15.5434 35.615 14.6175C35.4319 13.9359 35.0891 13.3077 34.615 12.785C34.243 12.3629 33.7876 12.0224 33.2775 11.785C32.8394 11.5823 32.3786 11.4329 31.905 11.34C31.7166 11.3089 31.5259 11.2946 31.335 11.2975M30.88 21.14H30.63V13.48H30.6625C31.1779 13.4207 31.6994 13.5137 32.1625 13.7475C32.5016 14.0183 32.778 14.3595 32.9725 14.7475C33.1824 15.1558 33.3034 15.604 33.3275 16.0625C33.35 16.6125 33.3275 17.0625 33.3275 17.435C33.3377 17.8641 33.3101 18.2932 33.245 18.7175C33.1679 19.153 33.0255 19.5745 32.8225 19.9675C32.5927 20.3329 32.2823 20.6407 31.915 20.8675C31.6065 21.067 31.2413 21.16 30.875 21.1325M43.575 11.345H37.5V23.345H40.07V18.585H43.32V16.355H40.07V13.575H43.57V11.345" fill="#464648"/>
<path d="M54.4525 50.6375C54.4525 50.6375 62.4225 49.1925 62.4225 51.915C62.4225 54.6375 57.485 53.53 54.4525 50.6375ZM48.56 50.845C47.2937 51.1248 46.0597 51.5345 44.8775 52.0675L45.8775 49.8175C46.8775 47.5675 47.915 44.5 47.915 44.5C49.1083 46.5084 50.4966 48.3941 52.06 50.13C50.881 50.3058 49.7126 50.5462 48.56 50.85V50.845ZM45.405 34.595C45.405 32.2225 46.1725 31.575 46.77 31.575C47.3675 31.575 48.04 31.8625 48.0625 33.9225C47.8678 35.9939 47.4341 38.0358 46.77 40.0075C45.8603 38.3521 45.3895 36.4914 45.4025 34.6025L45.405 34.595ZM33.7825 60.885C31.3375 59.4225 38.91 54.92 40.2825 54.775C40.275 54.7775 36.3425 62.415 33.7825 60.885ZM64.75 52.2375C64.725 51.9875 64.5 49.22 59.575 49.3375C57.5222 49.3044 55.4703 49.4491 53.4425 49.77C51.4782 47.791 49.7866 45.5588 48.4125 43.1325C49.2782 40.6311 49.8021 38.0242 49.97 35.3825C49.8975 32.3825 49.18 30.6625 46.88 30.6875C44.58 30.7125 44.245 32.725 44.5475 35.72C44.8438 37.7326 45.4027 39.6977 46.21 41.565C46.21 41.565 45.1475 44.8725 43.7425 48.1625C42.3375 51.4525 41.3775 53.1775 41.3775 53.1775C38.9343 53.9729 36.6343 55.1545 34.565 56.6775C32.505 58.595 31.6675 60.0675 32.7525 61.54C33.6875 62.81 36.96 63.0975 39.885 59.265C41.4391 57.2856 42.859 55.2042 44.135 53.035C44.135 53.035 48.595 51.8125 49.9825 51.4775C51.37 51.1425 53.0475 50.8775 53.0475 50.8775C53.0475 50.8775 57.12 54.975 61.0475 54.83C64.975 54.685 64.785 52.4825 64.76 52.2425" fill="#DD2025"/>
<path d="M59.885 5.19238V19.8749H73.9675L59.885 5.19238Z" fill="#909090"/>
<path d="M60.0775 5V19.6825H74.16L60.0775 5Z" fill="#F4F4F4"/>
<path d="M22.4375 11.1426H19.17V23.1426H21.75V19.0976L22.32 19.1301C22.8714 19.1206 23.4177 19.0218 23.9375 18.8376C24.3932 18.6808 24.8125 18.4333 25.17 18.1101C25.531 17.8013 25.8152 17.4127 26 16.9751C26.2507 16.2463 26.3403 15.4718 26.2625 14.7051C26.2469 14.1574 26.1509 13.6149 25.9775 13.0951C25.8197 12.7199 25.5855 12.3816 25.2898 12.1018C24.9941 11.8221 24.6434 11.6069 24.26 11.4701C23.927 11.3489 23.5828 11.261 23.2325 11.2076C22.9686 11.1669 22.7021 11.1451 22.435 11.1426M21.9625 16.8776H21.74V13.1776H22.225C22.438 13.1622 22.6516 13.1949 22.8503 13.2732C23.0489 13.3516 23.2274 13.4735 23.3725 13.6301C23.6733 14.0326 23.834 14.5226 23.83 15.0251C23.83 15.6401 23.83 16.1976 23.275 16.5901C22.8752 16.81 22.4201 16.909 21.965 16.8751M31.14 11.1101C30.8625 11.1101 30.5925 11.1301 30.4025 11.1376L29.815 11.1526H27.865V23.1526H30.16C31.0371 23.1766 31.9103 23.028 32.73 22.7151C33.3898 22.4534 33.974 22.0315 34.43 21.4876C34.8734 20.9387 35.1917 20.2997 35.3625 19.6151C35.5589 18.8398 35.6547 18.0424 35.6475 17.2426C35.696 16.298 35.6229 15.3511 35.43 14.4251C35.247 13.7435 34.9042 13.1153 34.43 12.5926C34.058 12.1705 33.6026 11.83 33.0925 11.5926C32.6545 11.3899 32.1937 11.2405 31.72 11.1476C31.5317 11.1165 31.3409 11.1023 31.15 11.1051M30.695 20.9476H30.445V13.2876H30.4775C30.9929 13.2283 31.5144 13.3213 31.9775 13.5551C32.3167 13.8259 32.593 14.1671 32.7875 14.5551C32.9974 14.9634 33.1184 15.4116 33.1425 15.8701C33.165 16.4201 33.1425 16.8701 33.1425 17.2426C33.1527 17.6717 33.1251 18.1008 33.06 18.5251C32.983 18.9607 32.8405 19.3821 32.6375 19.7751C32.4077 20.1405 32.0973 20.4484 31.73 20.6751C31.4216 20.8746 31.0563 20.9677 30.69 20.9401M43.3825 11.1526H37.3075V23.1526H39.8775V18.3926H43.1275V16.1626H39.8775V13.3826H43.3775V11.1526" fill="white"/>
</svg>
